<svg version="1.0" xmlns="http://www.w3.org/2000/svg"
 width="711.000000pt" height="249.000000pt" viewBox="0 0 711.000000 249.000000">

<g transform="translate(0.000000,249.000000) scale(0.100000,-0.100000)"
fill="#000000" stroke="none">
<path d="M3820 2113 c-176 -294 -263 -448 -337 -598 -72 -146 -74 -148 -163
-220 -224 -178 -363 -247 -439 -215 -80 33 -59 159 60 363 32 55 56 104 53
108 -9 15 -31 -2 -84 -66 -97 -117 -356 -344 -449 -394 -77 -41 -143 -43 -167
-6 -35 53 12 209 111 370 30 50 55 93 55 98 0 22 -33 0 -64 -44 -26 -36 -66
-69 -139 -116 -144 -94 -310 -215 -391 -287 -42 -36 -67 -53 -62 -41 39 104
121 319 136 355 55 135 60 151 47 156 -8 3 -65 -47 -138 -119 -132 -131 -224
-209 -355 -300 -92 -64 -140 -87 -182 -87 -43 0 -56 21 -49 81 7 57 47 140
131 274 59 92 63 110 33 129 -20 13 -88 -10 -362 -122 -386 -157 -698 -249
-877 -259 -60 -3 -108 -9 -108 -12 1 -32 42 -41 136 -30 176 22 450 109 867
275 159 64 297 114 308 112 17 -3 13 -14 -37 -98 -85 -143 -117 -217 -122
-281 -5 -73 16 -99 81 -99 90 0 296 144 540 376 37 36 67 61 67 55 0 -9 -78
-218 -149 -399 -34 -89 -47 -110 -88 -145 -111 -95 -395 -388 -451 -464 -70
-96 -106 -181 -98 -233 6 -38 37 -70 68 -70 62 0 180 110 283 264 67 102 214
384 255 491 25 66 52 95 215 227 99 81 365 262 372 254 3 -2 -4 -21 -15 -43
-34 -67 -62 -162 -62 -207 0 -66 15 -95 57 -112 45 -19 102 -7 178 36 58 33
207 156 312 257 66 63 70 66 56 33 -30 -67 -54 -174 -48 -213 24 -160 181
-138 450 62 66 49 121 89 122 88 1 -1 -5 -29 -13 -62 -7 -33 -14 -86 -14 -118
0 -54 3 -62 34 -93 31 -31 39 -34 92 -34 125 1 314 91 537 255 70 52 127 92
127 88 0 -4 -12 -40 -26 -82 -31 -90 -30 -169 3 -202 47 -48 129 -32 246 45
55 37 212 170 300 255 l49 46 -17 -40 c-51 -118 -60 -223 -25 -268 66 -84 210
-47 411 105 52 39 100 78 108 85 22 22 23 9 5 -52 -42 -147 25 -255 151 -240
111 14 247 120 313 243 22 42 40 63 55 66 57 10 636 67 742 72 198 10 399 -25
459 -81 28 -26 46 -25 46 0 0 23 -98 73 -180 92 -98 23 -415 23 -610 -1 -193
-24 -407 -46 -440 -46 -28 0 -28 0 -18 42 17 79 -10 155 -66 182 -97 46 -216
-9 -247 -114 -24 -79 45 -136 180 -147 39 -3 71 -9 71 -13 0 -17 -81 -129
-121 -167 -65 -62 -131 -93 -196 -93 -65 0 -88 11 -109 52 -34 66 5 196 97
329 32 45 40 62 31 71 -9 9 -19 4 -39 -22 -67 -84 -146 -158 -247 -232 -124
-92 -202 -135 -264 -144 -157 -24 -163 131 -14 379 29 47 52 91 52 97 0 20
-20 9 -57 -32 -69 -80 -228 -229 -338 -320 -142 -118 -248 -169 -291 -140 -63
42 -31 180 91 387 30 52 55 99 55 104 0 31 -34 -1 -96 -91 -63 -91 -301 -271
-470 -356 -169 -85 -278 -103 -329 -56 -26 24 -28 29 -22 93 14 166 176 486
557 1098 29 47 35 83 12 83 -4 0 -64 -93 -132 -207z m1816 -592 c39 -24 59
-77 49 -129 -11 -60 -22 -72 -63 -72 -52 0 -146 24 -178 45 -22 14 -25 22 -21
51 16 99 131 155 213 105z m-4001 -763 c-117 -257 -288 -498 -387 -549 -48
-24 -65 -24 -79 2 -25 47 18 148 116 274 75 97 387 404 393 387 2 -6 -18 -58
-43 -114z"

        
        fill="black"
        stroke="black"
        stroke-width="3"
        stroke-dasharray="600"
        stroke-dashoffset="600">
        <animate 
            attributeName="stroke-dashoffset"
            from="400"
            to="0"
            dur="8s"
            fill="freeze" />
</g>
</svg>
